<?xml version="1.0" ?>
<!-- Uploaded to: SVG Repo, www.svgrepo.com, Generator: SVG Repo Mixer Tools -->
<svg width="800px" height="800px" viewBox="0 0 32 32" xmlns="http://www.w3.org/2000/svg">
<g id="a"/>
<g id="b">
<rect height="14.3551" rx="2" ry="2" style="fill:#cfb1fc;" transform="translate(-13.3715 13.1619) rotate(-45)" width="5.536" x="6.434" y="15.5443"/>
<rect height="14.3551" rx="2" ry="2" style="fill:#cfb1fc;" transform="translate(45.4792 -.2818) rotate(135)" width="5.536" x="20.0299" y="2.1006"/>
<path d="M29.123,10.2749l-.6292-.6292,.2336-.2336c1.165-1.1646,1.165-3.0605,0-4.2261l-2.3193-2.3184c-1.1289-1.1284-3.0967-1.1304-4.2256,0l-.2334,.2334-.1484-.1484c-1.1328-1.1323-3.1084-1.1333-4.2422,0l-1.0859,1.0864c-.5664,.5664-.8789,1.3198-.8789,2.1211s.3125,1.5547,.8789,2.1211l1.7502,1.7502-8.1914,8.1914-1.8264-1.8264c-1.1699-1.1699-3.0723-1.1699-4.2422,0l-1.0859,1.0859c-1.1699,1.1699-1.1699,3.0728,0,4.2427l.6292,.6292-.2336,.2336c-1.165,1.1646-1.165,3.0605,0,4.2261l2.3193,2.3184c.5645,.5645,1.3145,.8755,2.1133,.8755,.7979,0,1.5479-.311,2.1123-.8755l.2334-.2334,.1484,.1484c.5664,.5664,1.3193,.8784,2.1211,.8784,.8008,0,1.5547-.312,2.1211-.8784l1.0859-1.0864c.5664-.5664,.8789-1.3198,.8789-2.1211s-.3125-1.5547-.8789-2.1211l-1.7502-1.7502,8.1914-8.1914,1.8264,1.8264c.585,.585,1.3525,.8774,2.1211,.8774s1.5361-.2925,2.1211-.8774l1.0859-1.0859c1.1699-1.1699,1.1699-3.0728,0-4.2427Zm-5.5264-5.9932c.373-.375,1.0244-.374,1.3975,0l2.3193,2.3184c.3848,.3853,.3848,1.0127,0,1.3979l-.2336,.2336-3.7166-3.7166,.2334-.2334ZM8.4033,27.7183c-.374,.3745-1.0254,.3726-1.3975,0l-2.3193-2.3184c-.3848-.3853-.3848-1.0127,0-1.3979l.2336-.2336,3.7166,3.7166-.2334,.2334Zm6.0029-1.8784c0,.2671-.1035,.5181-.293,.7065v.0005l-1.0859,1.0859c-.377,.3794-1.0371,.3779-1.4141,.0005l-7.3223-7.3223c-.3896-.3901-.3896-1.0244,0-1.4146l1.0859-1.0859c.1953-.1948,.4512-.2925,.707-.2925s.5117,.0977,.707,.2925l7.3223,7.3228c.1895,.1885,.293,.4395,.293,.7065Zm-2.0432-5.2854l-.9175-.9175,8.1914-8.1914,.9175,.9175-8.1914,8.1914Zm15.3459-7.4509l-1.0859,1.0859c-.3906,.3896-1.0234,.3896-1.4141,0l-7.3223-7.3228c-.1895-.1885-.293-.4395-.293-.7065s.1035-.5181,.293-.7065v-.0005l1.0859-1.0859c.1885-.189,.4404-.293,.707-.293,.2676,0,.5186,.1035,.707,.2925l7.3223,7.3223c.3896,.3901,.3896,1.0244,0,1.4146Z" style="fill:#96c;"/>
</g>
</svg>